<?xml version="1.0" encoding="utf-8"?>
<!-- Generator: Adobe Illustrator 19.1.0, SVG Export Plug-In . SVG Version: 6.00 Build 0)  -->
<svg version="1.1" id="Layer_1" xmlns="http://www.w3.org/2000/svg" xmlns:xlink="http://www.w3.org/1999/xlink" x="0px" y="0px"
	 viewBox="0 0 67.2 48.1" style="enable-background:new 0 0 67.2 48.1;" xml:space="preserve">
<style type="text/css">
	.st0{opacity:0.42;fill:url(#SVGID_1_);}
	.st1{fill:none;stroke:#FFFFFF;}
	.st2{fill:#FFFFFF;}
</style>
<g>
	<g>
		<path d="M60,42.5c-17.2,5.4-35.7,5.4-52.9,0c-3.3-1.1-5.9-4.9-5.9-8.1c0-6.9,0-13.7,0-20.6c0-3.2,2.6-7,5.9-8.1
			c17.2-5.4,35.7-5.4,52.9,0c3.3,1.1,5.9,4.9,5.9,8.1c0,6.9,0,13.7,0,20.6C65.9,37.6,63.3,41.4,60,42.5z"/>
		<linearGradient id="SVGID_1_" gradientUnits="userSpaceOnUse" x1="66.2773" y1="-9.4089" x2="1.5273" y2="56.8411">
			<stop  offset="0" style="stop-color:#FFFFFF"/>
			<stop  offset="1" style="stop-color:#231F20"/>
		</linearGradient>
		<path class="st0" d="M60,42.5c-17.2,5.4-35.7,5.4-52.9,0c-3.3-1.1-5.9-4.9-5.9-8.1c0-6.9,0-13.7,0-20.6c0-3.2,2.6-7,5.9-8.1
			c17.2-5.4,35.7-5.4,52.9,0c3.3,1.1,5.9,4.9,5.9,8.1c0,6.9,0,13.7,0,20.6C65.9,37.6,63.3,41.4,60,42.5z"/>
		<path class="st1" d="M60,42.5c-17.2,5.4-35.7,5.4-52.9,0c-3.3-1.1-5.9-4.9-5.9-8.1c0-6.9,0-13.7,0-20.6c0-3.2,2.6-7,5.9-8.1
			c17.2-5.4,35.7-5.4,52.9,0c3.3,1.1,5.9,4.9,5.9,8.1c0,6.9,0,13.7,0,20.6C65.9,37.6,63.3,41.4,60,42.5z"/>
	</g>
	<g>
		<path class="st2" d="M28.7,22.2l4.6,2.2c-0.9,1.9-2.4,3.1-4.1,4.3c-1.6,0.9-3.5,1.6-5.5,1.6c-3.2,0-5.8-1.1-7.9-3
			c-1.9-2-2.8-4.7-2.8-8.3c0-3.5,0.9-6.1,3-8.2c1.9-2,4.4-3,7.6-3c4.4,0,7.7,1.7,9.6,5.2l-4.9,2.5c-0.5-1.1-1.1-1.9-1.9-2.2
			c-0.8-0.5-1.4-0.8-2.1-0.8c-3.3,0-4.9,2.2-4.9,6.5c0,1.9,0.5,3.5,1.3,4.7c0.8,1.1,2,1.7,3.6,1.7C26.3,25.3,27.9,24.2,28.7,22.2z
			 M49.6,22.2l4.6,2.2c-1.1,1.9-2.4,3.1-4.1,4.3c-1.7,0.9-3.5,1.6-5.5,1.6c-3.3,0-5.8-1.1-7.9-3c-1.9-2-2.8-4.7-2.8-8.3
			c0-3.5,0.9-6.1,3-8.2c1.9-2,4.6-3,7.6-3c4.4,0,7.7,1.7,9.6,5.2l-4.9,2.5c-0.5-1.1-1.1-1.9-1.9-2.2c-0.8-0.5-1.4-0.8-2-0.8
			c-3.3,0-4.9,2.2-4.9,6.5c0,1.9,0.3,3.5,1.3,4.7c0.8,1.1,1.9,1.7,3.6,1.7C47.3,25.3,48.7,24.2,49.6,22.2z"/>
	</g>
	<g>
		<g>
			<path class="st2" d="M20.2,38.8c0,0.3,0,0.6,0.1,0.7c0.2,0.3,0.6,0.6,1.3,0.7c0.4,0.1,0.7,0,1-0.1c0.3-0.1,0.5-0.3,0.5-0.6
				c0-0.2-0.1-0.4-0.3-0.6c-0.1-0.1-0.4-0.2-0.8-0.4c-0.3-0.1-0.5-0.2-0.8-0.3c-0.5-0.2-0.8-0.4-1.1-0.6c-0.4-0.3-0.5-0.7-0.5-1.1
				c0.1-0.5,0.4-0.9,0.8-1.2c0.4-0.3,1-0.3,1.7-0.2c0.9,0.1,1.5,0.4,1.8,1c0.2,0.3,0.3,0.7,0.2,1c-0.3,0-0.6-0.1-0.9-0.1
				c0-0.2,0-0.4-0.2-0.6c-0.2-0.3-0.6-0.4-1.1-0.5c-0.4-0.1-0.7,0-0.9,0.1c-0.2,0.1-0.3,0.3-0.4,0.5c0,0.2,0.1,0.4,0.3,0.6
				c0.1,0.1,0.3,0.2,0.6,0.3c0.2,0.1,0.4,0.2,0.6,0.2c0.7,0.3,1.2,0.5,1.4,0.7c0.4,0.3,0.5,0.7,0.4,1.2c-0.1,0.5-0.3,0.9-0.8,1.2
				c-0.5,0.3-1.1,0.4-2,0.3c-0.9-0.1-1.5-0.4-1.8-0.9c-0.3-0.4-0.4-0.9-0.4-1.5C19.5,38.7,19.8,38.7,20.2,38.8z"/>
			<path class="st2" d="M25.8,33.6c0.3,0,0.6,0.1,0.9,0.1c-0.1,0.9-0.2,1.9-0.3,2.8c0.3-0.3,0.5-0.4,0.7-0.5
				c0.3-0.2,0.7-0.2,1.2-0.2c0.8,0.1,1.4,0.4,1.6,0.9c0.1,0.3,0.2,0.7,0.2,1.3c-0.1,1.2-0.1,2.4-0.2,3.6c-0.4,0-0.7,0-1.1-0.1
				c0.1-1.2,0.1-2.3,0.2-3.5c0-0.4,0-0.7-0.1-0.9c-0.2-0.3-0.5-0.5-1-0.5c-0.4,0-0.8,0.1-1.1,0.3c-0.3,0.2-0.6,0.7-0.6,1.5
				c-0.1,1-0.2,2-0.3,2.9c-0.3,0-0.7-0.1-1-0.1C25.3,38.6,25.6,36.1,25.8,33.6z"/>
			<path class="st2" d="M34.8,38.3c0.2,0,0.4-0.1,0.5-0.3c0-0.1,0.1-0.2,0.1-0.4c0-0.3-0.1-0.5-0.4-0.7c-0.2-0.1-0.6-0.2-1-0.2
				c-0.5,0-0.9,0.1-1.1,0.4c-0.1,0.1-0.2,0.4-0.2,0.6c-0.3,0-0.6,0-0.9,0c0-0.7,0.3-1.2,0.7-1.4c0.4-0.3,1-0.4,1.5-0.4
				c0.7,0,1.2,0.1,1.6,0.4c0.4,0.2,0.6,0.6,0.7,1.1c0,1.1,0.1,2.1,0.1,3.2c0,0.1,0,0.2,0.1,0.2c0,0.1,0.1,0.1,0.3,0.1
				c0,0,0.1,0,0.2,0c0.1,0,0.1,0,0.2,0c0,0.2,0,0.5,0,0.7c-0.2,0-0.3,0.1-0.4,0.1c-0.1,0-0.2,0-0.3,0c-0.4,0-0.6-0.1-0.8-0.3
				c-0.1-0.1-0.1-0.3-0.2-0.5c-0.2,0.3-0.5,0.5-0.9,0.7c-0.4,0.2-0.8,0.3-1.3,0.3c-0.6,0-1-0.2-1.4-0.5c-0.4-0.3-0.5-0.7-0.5-1.2
				c0-0.5,0.2-0.9,0.6-1.2c0.3-0.3,0.8-0.4,1.4-0.5C33.7,38.4,34.3,38.3,34.8,38.3z M32.7,40.8c0.2,0.2,0.5,0.2,0.8,0.2
				c0.4,0,0.7-0.1,1-0.2c0.6-0.3,0.8-0.7,0.8-1.2c0-0.2,0-0.5,0-0.7c-0.1,0.1-0.3,0.1-0.5,0.2c-0.2,0.1-0.4,0.1-0.6,0.1
				c-0.2,0-0.4,0-0.6,0.1c-0.4,0-0.6,0.1-0.8,0.2c-0.3,0.2-0.5,0.4-0.5,0.8C32.4,40.4,32.5,40.6,32.7,40.8z"/>
			<path class="st2" d="M37.7,33.9c0.3,0,0.6,0,0.9,0c0.1,1.5,0.2,2.9,0.3,4.4c0.8-0.8,1.6-1.7,2.3-2.5c0.4,0,0.8-0.1,1.2-0.1
				c-0.7,0.8-1.3,1.5-2,2.3c0.9,1.1,1.8,2.2,2.7,3.3c-0.4,0-0.9,0.1-1.3,0.1c-0.7-0.9-1.4-1.8-2.1-2.7c-0.3,0.3-0.5,0.5-0.8,0.8
				c0,0.7,0.1,1.4,0.1,2.1c-0.3,0-0.7,0-1,0.1C37.9,39,37.8,36.5,37.7,33.9z"/>
			<path class="st2" d="M46.8,35.2c0.4,0.1,0.7,0.3,1,0.6c0.2,0.2,0.4,0.5,0.5,0.9c0.1,0.2,0.2,0.6,0.3,1.2
				c-1.4,0.2-2.8,0.5-4.3,0.6c0.1,0.6,0.3,1,0.6,1.3c0.3,0.3,0.7,0.4,1.3,0.3c0.5-0.1,0.9-0.3,1.2-0.7c0.1-0.2,0.2-0.4,0.3-0.7
				c0.3-0.1,0.7-0.1,1-0.2c0,0.2,0,0.4-0.1,0.7c-0.1,0.3-0.2,0.5-0.4,0.7c-0.3,0.3-0.6,0.6-1,0.7c-0.2,0.1-0.5,0.2-0.8,0.2
				c-0.8,0.1-1.4-0.1-2-0.5c-0.6-0.4-0.9-1.1-1-2c-0.1-0.9,0.1-1.6,0.5-2.2c0.4-0.6,1-1,1.8-1.1C46,35.1,46.4,35.1,46.8,35.2z
				 M47.5,37.3c-0.1-0.4-0.2-0.7-0.4-0.9c-0.3-0.4-0.8-0.6-1.4-0.5c-0.4,0.1-0.8,0.3-1,0.6c-0.3,0.3-0.4,0.8-0.3,1.2
				C45.3,37.6,46.4,37.5,47.5,37.3z"/>
		</g>
	</g>
</g>
</svg>
