<?xml version="1.0" encoding="UTF-8" standalone="no"?>
<svg width="50px" height="150px" viewBox="0 0 50 150" version="1.1" xmlns="http://www.w3.org/2000/svg" xmlns:xlink="http://www.w3.org/1999/xlink" xmlns:sketch="http://www.bohemiancoding.com/sketch/ns">
    <!-- Generator: Sketch 3.3.3 (12081) - http://www.bohemiancoding.com/sketch -->
    <title>genres_map</title>
    <desc>Created with Sketch.</desc>
    <defs></defs>
    <g id="Page-1" stroke="none" stroke-width="1" fill="none" fill-rule="evenodd" sketch:type="MSPage">
        <g id="genres_map" sketch:type="MSLayerGroup">
            <g id="Oval-1-+-Imported-Layers" transform="translate(0.000000, 100.000000)" sketch:type="MSShapeGroup">
                <circle id="Oval-1" fill="#2B2B2B" cx="25" cy="25" r="25"></circle>
                <path d="M26.4502382,15.3818182 C26.4502382,15.6090909 26.4229655,15.8454545 26.4593292,16.0636364 C26.6866019,17.4272727 26.9502382,18.7818182 27.5411473,20.0545455 C28.1593292,21.4 28.9320564,22.6272727 30.2229655,23.3909091 C31.6956928,24.2545455 33.4229655,24.3454545 34.677511,22.9454545 C35.4047837,22.1363636 35.6047837,20.8454545 34.9047837,20.0454545 C34.4956928,19.5636364 33.8593292,19.2545455 33.277511,18.9454545 C31.8593292,18.2 30.7684201,17.1454545 30.0411473,15.7090909 C29.677511,15.0090909 29.3047837,14.3 28.8593292,13.6454545 C28.3047837,12.8363636 27.3047837,12.8818182 26.8320564,13.7 C26.5502382,14.1818182 26.4866019,14.7909091 26.3229655,15.3363636 C26.3684201,15.3545455 26.4047837,15.3636364 26.4502382,15.3818182 L26.4502382,15.3818182 Z M22.0502382,25.9090909 C22.8138746,26 23.1866019,25.8545455 23.7229655,25.4090909 C24.5047837,24.7727273 24.5411473,24.7909091 25.2866019,25.3 C25.5502382,25.4818182 25.7956928,25.6909091 26.0866019,25.8090909 C26.3320564,25.9 26.6320564,25.8727273 26.9047837,25.9 C26.9229655,25.6363636 26.9866019,25.3636364 26.9411473,25.1181818 C26.7138746,23.9545455 26.1684201,22.9090909 25.6047837,21.8909091 C25.3320564,21.4 24.9502382,20.9818182 24.6138746,20.5272727 C24.5411473,20.5454545 24.4684201,20.5727273 24.3956928,20.5909091 C23.2320564,22.1818182 22.3502382,23.9 22.0502382,25.9090909 L22.0502382,25.9090909 Z M22.5047837,45.3181818 C21.2593292,44.2 20.6956928,42.6727273 20.1684201,41.1363636 C19.1138746,38.1272727 18.1047837,35.1090909 17.0047837,32.1272727 C16.5866019,30.9818182 16.0229655,29.8818182 15.4411473,28.8181818 C14.9138746,27.8545455 13.9684201,27.3181818 13.0684201,26.7454545 C12.1047837,26.1272727 11.0956928,25.5545455 10.5593292,24.4727273 C9.99569279,23.3181818 9.88660188,22.0909091 10.1047837,20.8454545 C10.3411473,19.5454545 10.9502382,18.4181818 11.8866019,17.5 C12.2411473,17.1454545 12.6866019,16.8636364 13.1320564,16.6090909 C13.4684201,16.4181818 13.677511,16.2454545 13.7593292,15.8181818 C14.0956928,13.9818182 14.8593292,12.3181818 15.9684201,10.8272727 C17.6593292,8.54545455 19.8502382,6.93636364 22.6320564,6.22727273 C23.2411473,6.06363636 23.8866019,6.04545455 24.1956928,6 C26.2684201,6.01818182 27.8502382,6.58181818 29.3138746,7.47272727 C30.177511,8.00909091 31.0138746,8.63636364 31.7411473,9.35454545 C33.6320564,11.2181818 34.8956928,13.4545455 35.5047837,16.0545455 C35.5411473,16.2181818 35.6593292,16.4272727 35.8047837,16.5 C37.5684201,17.3727273 38.5956928,18.8454545 39.0320564,20.7 C39.4502382,22.4909091 39.0956928,24.2 37.7138746,25.5 C37.0138746,26.1545455 36.1138746,26.6090909 35.2956928,27.1545455 C34.4047837,27.7545455 33.677511,28.4818182 33.2047837,29.4909091 C31.7866019,32.4363636 30.677511,35.5 29.6684201,38.6090909 C29.1229655,40.2909091 28.5229655,41.9636364 27.8047837,43.5818182 C27.2684201,44.7818182 26.4229655,45.7909091 24.977511,46.0363636 C24.0320564,46.1909091 23.1956928,45.9363636 22.5047837,45.3181818 L22.5047837,45.3181818 Z M23.5684201,27.7818182 C22.0866019,27.9272727 21.2320564,28.8181818 21.3866019,30.2727273 C21.5047837,31.4636364 21.7956928,32.6363636 21.977511,33.8272727 C22.1866019,35.2545455 22.3593292,36.6818182 22.5502382,38.1 C22.5138746,38.1090909 22.477511,38.1090909 22.4411473,38.1181818 C22.4866019,38.5090909 22.5320564,38.9 22.5684201,39.2909091 C22.677511,40.6818182 22.9684201,42.0272727 23.6047837,43.2818182 C24.0956928,44.2545455 24.9866019,44.1181818 25.4411473,43.3818182 C26.1593292,42.2181818 26.2502382,40.9 26.4320564,39.6181818 C26.5866019,38.5545455 26.577511,37.4636364 26.7320564,36.4 C26.9866019,34.7181818 27.3320564,33.0545455 27.6047837,31.3818182 C27.8593292,29.8 27.2956928,28.6363636 25.7411473,28 C25.0593292,27.7090909 24.3229655,27.7090909 23.5684201,27.7818182 L23.5684201,27.7818182 Z M16.5593292,24.0090909 C18.2047837,24.0454545 19.4320564,23.1909091 20.3956928,21.9636364 C21.8502382,20.1 22.4502382,17.9090909 22.5866019,15.4909091 C22.5593292,15.1909091 22.5502382,14.8090909 22.4593292,14.4363636 C22.3229655,13.8090909 21.9229655,13.3727273 21.2866019,13.2818182 C20.777511,13.2 20.3684201,13.4545455 20.0866019,13.8909091 C19.7684201,14.4 19.477511,14.9272727 19.1502382,15.4272727 C18.6047837,16.2545455 18.077511,17.1090909 17.4593292,17.8818182 C16.7684201,18.7454545 15.7138746,19.1090909 14.7411473,19.5636364 C13.7138746,20.0454545 13.5411473,21.0909091 13.7593292,21.8909091 C14.1138746,23.1636364 15.2593292,23.9818182 16.5593292,24.0090909 L16.5593292,24.0090909 Z" id="Imported-Layers" fill="#FFFFFF"></path>
            </g>
            <g id="Oval-1-+-LOL" transform="translate(0.000000, 50.000000)" sketch:type="MSShapeGroup">
                <circle id="Oval-1" fill="#2B2B2B" cx="25" cy="25" r="25"></circle>
                <path d="M38.32,16.696 C35.212,13.884 30.18,13.884 27.072,16.696 L25,18.62 L22.854,16.696 C19.82,13.884 14.788,13.884 11.68,16.696 C8.202,19.878 8.202,25.058 11.68,28.24 L25,40.45 L38.32,28.24 C41.798,25.058 41.798,19.878 38.32,16.696 L38.32,16.696 Z" id="6" fill="#EA5353"></path>
            </g>
            <g id="Oval-1-+-6" sketch:type="MSShapeGroup">
                <circle id="Oval-1" fill="#2B2B2B" cx="25" cy="25" r="25"></circle>
                <path d="M9.37548828,19.0449219 L12.0825195,19.0449219 L12.0825195,29.6708984 L18.4985352,29.6708984 L18.4985352,32 L9.37548828,32 L9.37548828,19.0449219 Z M28.6542969,28.8798828 C29.2841828,28.0888632 29.5991211,26.9638745 29.5991211,25.5048828 C29.5991211,24.0517505 29.2841828,22.9282266 28.6542969,22.1342773 C28.0244109,21.3403281 27.1733452,20.9433594 26.1010742,20.9433594 C25.0288032,20.9433594 24.173343,21.3388632 23.534668,22.1298828 C22.8959929,22.9209024 22.5766602,24.0458911 22.5766602,25.5048828 C22.5766602,26.9638745 22.8959929,28.0888632 23.534668,28.8798828 C24.173343,29.6709024 25.0288032,30.0664062 26.1010742,30.0664062 C27.1733452,30.0664062 28.0244109,29.6709024 28.6542969,28.8798828 L28.6542969,28.8798828 Z M30.3461914,30.8486328 C29.3676709,31.8564504 27.952646,32.3603516 26.1010742,32.3603516 C24.2495025,32.3603516 22.8344775,31.8564504 21.855957,30.8486328 C20.5434505,29.6122985 19.887207,27.8310663 19.887207,25.5048828 C19.887207,23.1318241 20.5434505,21.3505919 21.855957,20.1611328 C22.8344775,19.1533153 24.2495025,18.6494141 26.1010742,18.6494141 C27.952646,18.6494141 29.3676709,19.1533153 30.3461914,20.1611328 C31.6528386,21.3505919 32.3061523,23.1318241 32.3061523,25.5048828 C32.3061523,27.8310663 31.6528386,29.6122985 30.3461914,30.8486328 L30.3461914,30.8486328 Z M34.371582,19.0449219 L37.0786133,19.0449219 L37.0786133,29.6708984 L43.4946289,29.6708984 L43.4946289,32 L34.371582,32 L34.371582,19.0449219 Z" id="LOL" fill="#87E67F"></path>
            </g>
        </g>
    </g>
</svg>